<svg xmlns="http://www.w3.org/2000/svg" xmlns:xlink="http://www.w3.org/1999/xlink" version="1.1" fill='#337ab7' x="0px" y="0px" viewBox="0 0 500 625" style="enable-background:new 0 0 500 500;" xml:space="preserve"><path d="M137.1,95.8c-3.7,0-6.8-3-6.8-6.8c0-3.7,3-6.8,6.8-6.8h191.6c3.7,0,6.8,3,6.8,6.8c0,3.7-3,6.8-6.8,6.8H137.1z M294.6,379.6  H310v-20c-37.1-2.6-66.4-33.7-66.4-71.2c0-3.7,3-6.8,6.8-6.8c3.7,0,6.8,3,6.8,6.8c0,31.8,26,57.9,57.9,57.9h29.7  c31.8,0,57.9-26.1,57.9-57.9c0-3.7,3-6.8,6.8-6.8c3.7,0,6.8,3,6.8,6.8c0,37.5-29.3,68.6-66.4,71.2v20h15.5  c12.6,0,22.8,10.3,22.8,22.8v16.1c0,3.7-3,6.8-6.8,6.8H278.5c-3.7,0-6.8-3-6.8-6.8v-16.1C271.8,389.8,282,379.6,294.6,379.6  L294.6,379.6z M323.5,379.6h12.8v-19.9h-12.8V379.6z M365.3,393.1h-16.9c-1.2,1.6-3.1,2.6-5.3,2.6h-26.3c-2.1,0-4-1-5.3-2.6h-16.9  c-5.1,0-9.3,4.2-9.3,9.3v9.3h89.3v-9.3C374.6,397.3,370.4,393.1,365.3,393.1L365.3,393.1z M310.1,152.6v23.3c0,3.7-3,6.8-6.8,6.8  s-6.8-3-6.8-6.8v-19.7c-10.2,5.4-17,16-17,28v18.2h30.6c3.7,0,6.8,3,6.8,6.8c0,3.7-3,6.8-6.8,6.8h-30.6V229h30.6  c3.7,0,6.8,3,6.8,6.8c0,3.7-3,6.8-6.8,6.8h-30.6v13.1h30.6c3.7,0,6.8,3,6.8,6.8c0,3.7-3,6.8-6.8,6.8h-30.6v13.1h20.9  c3.7,0,6.8,3,6.8,6.8c0,3.7-3,6.8-6.8,6.8h-20.6c2.2,15.4,15.5,27.2,31.3,27.2h37.4c15.8,0,29.1-11.8,31.3-27.2h-20.6  c-3.7,0-6.7-3-6.7-6.8c0-3.7,3-6.8,6.7-6.8h20.9v-13.1h-30.6c-3.7,0-6.8-3-6.8-6.8c0-3.7,3-6.8,6.8-6.8h30.6v-13.1h-30.6  c-3.7,0-6.8-3-6.8-6.8c0-3.7,3-6.8,6.8-6.8h30.6v-13.1h-30.6c-3.7,0-6.8-3-6.8-6.8c0-3.7,3-6.8,6.8-6.8h30.6v-18.2  c0-12-6.8-22.6-17-28v19.7c0,3.7-3,6.8-6.8,6.8s-6.8-3-6.8-6.8v-23.3l-13.1,0v23.3c0,3.7-3,6.8-6.8,6.8c-3.7,0-6.8-3-6.8-6.8v-23.3  L310.1,152.6z M311.2,139.1h37.4c24.8,0,45.1,20.3,45.1,45.1v107.1c0,24.8-20.3,45.1-45.1,45.1h-37.4c-24.8,0-45.1-20.3-45.1-45.1  V184.2C266.1,159.4,286.4,139.1,311.2,139.1L311.2,139.1z M137.1,238.6c-3.7,0-6.8-3-6.8-6.8c0-3.7,3-6.8,6.8-6.8h100.2  c3.7,0,6.8,3,6.8,6.8c0,3.7-3,6.8-6.8,6.8H137.1z M137.1,203.2c-3.7,0-6.8-3-6.8-6.8c0-3.7,3-6.8,6.8-6.8h100.2c3.7,0,6.8,3,6.8,6.8  c0,3.7-3,6.8-6.8,6.8H137.1z M137.1,167.7c-3.7,0-6.8-3-6.8-6.8c0-3.7,3-6.8,6.8-6.8h100.2c3.7,0,6.8,3,6.8,6.8c0,3.7-3,6.8-6.8,6.8  H137.1z M137.1,132.3c-3.7,0-6.8-3-6.8-6.8c0-3.7,3-6.8,6.8-6.8h37.4c3.7,0,6.8,3,6.8,6.8c0,3.7-3,6.8-6.8,6.8H137.1z M137.1,387.8  c-3.7,0-6.8-3-6.8-6.8c0-3.7,3-6.8,6.8-6.8h63.1c3.7,0,6.8,3,6.8,6.8c0,3.7-3,6.8-6.8,6.8H137.1z M137.1,352.3c-3.7,0-6.8-3-6.8-6.8  c0-3.7,3-6.7,6.8-6.7h98.7c3.7,0,6.8,3,6.8,6.7c0,3.7-3,6.8-6.8,6.8H137.1z M137.1,316.9c-3.7,0-6.8-3-6.8-6.8c0-3.7,3-6.8,6.8-6.8  H217c3.7,0,6.8,3,6.8,6.8c0,3.7-3,6.8-6.8,6.8H137.1z M137.1,281.5c-3.7,0-6.8-3-6.8-6.8c0-3.7,3-6.8,6.8-6.8h59.4  c3.7,0,6.8,3,6.8,6.8c0,3.7-3,6.8-6.8,6.8H137.1z M374.3,32.3v47.1l47.2,0.1L374.3,32.3z M360.8,86.2V22.7l-252.7-0.5v417H431V93  h-63.5C363.8,93,360.8,89.9,360.8,86.2L360.8,86.2z M367,9.3c2.3-0.2,4.2,0.6,5.8,2.4l69.8,69.8c1.3,1.3,2,3,2,4.8V446  c0,3.7-3,6.8-6.8,6.8h-32.4v31.7c0,3.7-3,6.8-6.8,6.8H62.2c-3.7,0-6.8-3-6.8-6.8V53.9h0c0-3.7,3-6.7,6.7-6.7l32.4,0.1V15.5h0  c0-3.7,3-6.7,6.7-6.7L367,9.3z M94.6,446V60.7L69,60.7v417h322.9v-24.9H101.3C97.6,452.8,94.6,449.8,94.6,446L94.6,446z"/></svg>