<svg xmlns="http://www.w3.org/2000/svg" fill='#ff6600' xmlns:xlink="http://www.w3.org/1999/xlink" version="1.1" x="0px" y="0px" viewBox="0 0 66 82.5" style="enable-background:new 0 0 66 66;" xml:space="preserve"><path d="M32.01,11.4h12.14c1.54,0,2.79-1.25,2.79-2.79s-1.25-2.79-2.79-2.79H32.01c-1.54,0-2.79,1.25-2.79,2.79  S30.47,11.4,32.01,11.4z M32.01,7.74h12.14c0.48,0,0.87,0.39,0.87,0.87s-0.39,0.87-0.87,0.87H32.01c-0.48,0-0.87-0.39-0.87-0.87  S31.53,7.74,32.01,7.74z"/><path d="M10.55,11.8c1.75,0,3.18-1.43,3.18-3.19c0-1.75-1.43-3.18-3.18-3.18S7.37,6.86,7.37,8.61C7.37,10.37,8.8,11.8,10.55,11.8z   M10.55,7.34c0.7,0,1.27,0.57,1.27,1.27c0,0.7-0.57,1.27-1.27,1.27S9.29,9.31,9.29,8.61C9.29,7.91,9.86,7.34,10.55,7.34z"/><path d="M18.99,11.8c1.75,0,3.18-1.43,3.18-3.19c0-1.75-1.43-3.18-3.18-3.18s-3.18,1.43-3.18,3.18  C15.81,10.37,17.24,11.8,18.99,11.8z M18.99,7.34c0.7,0,1.27,0.57,1.27,1.27c0,0.7-0.57,1.27-1.27,1.27s-1.27-0.57-1.27-1.27  C17.73,7.91,18.3,7.34,18.99,7.34z"/><path d="M9.48,30.07h20.69c0.95,0,1.72-0.77,1.72-1.72V20.9c0-0.95-0.77-1.72-1.72-1.72H9.48c-0.95,0-1.72,0.77-1.72,1.72v7.44  C7.76,29.3,8.53,30.07,9.48,30.07z M9.67,21.09h20.31v7.06H9.67V21.09z"/><path d="M38.6,32.95H17.71c-0.53,0-0.96,0.43-0.96,0.96c0,0.53,0.43,0.96,0.96,0.96H38.6c0.53,0,0.96-0.43,0.96-0.96  C39.56,33.38,39.13,32.95,38.6,32.95z"/><path d="M38.6,37.27H8.72c-0.53,0-0.96,0.43-0.96,0.96c0,0.53,0.43,0.96,0.96,0.96H38.6c0.53,0,0.96-0.43,0.96-0.96  C39.56,37.7,39.13,37.27,38.6,37.27z"/><path d="M33.38,43.71c0.53,0,0.96-0.43,0.96-0.96c0-0.53-0.43-0.96-0.96-0.96h-5.22c-0.53,0-0.96,0.43-0.96,0.96  c0,0.53,0.43,0.96,0.96,0.96H33.38z"/><path d="M8.72,43.71h11.11c0.53,0,0.96-0.43,0.96-0.96c0-0.53-0.43-0.96-0.96-0.96H8.72c-0.53,0-0.96,0.43-0.96,0.96  C7.76,43.28,8.19,43.71,8.72,43.71z"/><path d="M38.6,46.12H8.72c-0.53,0-0.96,0.43-0.96,0.96c0,0.53,0.43,0.96,0.96,0.96H38.6c0.53,0,0.96-0.43,0.96-0.96  C39.56,46.55,39.13,46.12,38.6,46.12z"/><path d="M38.6,50.65H14.55c-0.53,0-0.96,0.43-0.96,0.96c0,0.53,0.43,0.96,0.96,0.96H38.6c0.53,0,0.96-0.43,0.96-0.96  C39.56,51.08,39.13,50.65,38.6,50.65z"/><path d="M19.53,54.97H8.72c-0.53,0-0.96,0.43-0.96,0.96c0,0.53,0.43,0.96,0.96,0.96h10.82c0.53,0,0.96-0.43,0.96-0.96  C20.49,55.4,20.06,54.97,19.53,54.97z"/><path d="M37.45,23.93h10.56c0.53,0,0.96-0.43,0.96-0.96c0-0.53-0.43-0.96-0.96-0.96H37.45c-0.53,0-0.96,0.43-0.96,0.96  C36.5,23.5,36.92,23.93,37.45,23.93z"/><path d="M37.45,27.54h10.56c0.53,0,0.96-0.43,0.96-0.96c0-0.53-0.43-0.96-0.96-0.96H37.45c-0.53,0-0.96,0.43-0.96,0.96  C36.5,27.12,36.92,27.54,37.45,27.54z"/><path d="M64.65,28.71c-0.19-0.84-0.69-1.55-1.42-2.01l-3.47-2.18c-0.73-0.46-1.59-0.61-2.43-0.42c-0.84,0.19-1.55,0.69-2.01,1.42  l-0.45,0.71V5.98c0-2.64-2.15-4.79-4.79-4.79H6.06c-2.64,0-4.79,2.15-4.79,4.79v54.04c0,2.64,2.15,4.79,4.79,4.79h44.03  c2.64,0,4.79-2.15,4.79-4.79V46.1l7.17-11.48c0,0,0,0,0,0l2.19-3.48C64.69,30.41,64.84,29.55,64.65,28.71z M6.06,3.11h44.03  c1.58,0,2.87,1.29,2.87,2.87v8.14H3.19V5.98C3.19,4.4,4.47,3.11,6.06,3.11z M52.96,60.02c0,1.58-1.29,2.87-2.87,2.87H6.06  c-1.58,0-2.87-1.29-2.87-2.87V16.03h49.77v13.24l-9.61,15.4c-0.04,0.06-0.07,0.12-0.1,0.18c0,0,0,0-0.01,0.01  c-0.01,0.01-0.01,0.02-0.01,0.03c-0.03,0.05-0.06,0.1-0.09,0.15c-0.01,0.02-0.01,0.04-0.02,0.06c-0.52,0.98-0.8,2.06-0.78,3.17  L42.41,53c0.01,0.65,0.35,1.25,0.9,1.6c0.31,0.2,0.67,0.3,1.03,0.3c0.27,0,0.55-0.06,0.8-0.18l4.3-1.97c1-0.46,1.86-1.18,2.52-2.07  c0.01-0.02,0.04-0.03,0.05-0.05c0.03-0.05,0.07-0.1,0.1-0.15c0-0.01,0.01-0.01,0.02-0.02c0,0,0,0,0-0.01  c0.04-0.06,0.08-0.11,0.12-0.18l0.7-1.12V60.02z M44.48,46.74l5.43,3.42c-0.37,0.35-0.79,0.64-1.26,0.85l-4.32,1.96l-0.08-4.73  C44.24,47.73,44.32,47.23,44.48,46.74z M51.04,48.62l-5.67-3.57l8.86-14.2l5.67,3.57L51.04,48.62z M62.61,30.12l-1.69,2.67  l-5.67-3.57l1.69-2.67c0.19-0.29,0.47-0.5,0.81-0.58c0.34-0.08,0.69-0.02,0.98,0.17l3.47,2.18c0.29,0.19,0.5,0.47,0.58,0.81  C62.86,29.48,62.8,29.82,62.61,30.12z"/></svg>