<svg xmlns="http://www.w3.org/2000/svg" xmlns:xlink="http://www.w3.org/1999/xlink" version="1.1" x="0px" y="0px" viewBox="0 0 131 163.75" enable-background="new 0 0 131 131" xml:space="preserve" fill='#ff6600'><g><path d="M43.1957664,2.0839844H9.403285v0.0003662C6.6650038,2.0863037,4.4384413,4.3137207,4.4384413,7.0517578v14.9667969   c0,0.5527344,0.4477539,1,1,1h6.9389648v29.5898438c0,0.4189453,0.2617188,0.7939453,0.6552734,0.9384766   c0.1123047,0.0419922,0.2290039,0.0615234,0.3447266,0.0615234c0.2875977,0,0.5683594-0.1240234,0.762207-0.3525391   l2.4980478-2.9404297l2.4980469,2.9404297c0.3803711,0.4482422,1.1450195,0.4462891,1.5244141,0l2.4951172-2.9394531   l2.4926758,2.9384766c0.1899414,0.2246094,0.46875,0.3535156,0.7626953,0.3535156   c0.293457,0,0.5722656-0.1289063,0.7626953-0.3525391l2.4941406-2.9394531l2.4936523,2.9394531   c0.3813477,0.4482422,1.1459961,0.4472656,1.5253906-0.0009766l2.4931641-2.9384766l2.4931641,2.9384766   c0.3803711,0.4501953,1.1459961,0.4482422,1.5253906,0l2.4916992-2.9375l2.4902344,2.9375   c0.2714844,0.3193359,0.7143555,0.4394531,1.1069336,0.2919922c0.394043-0.1445313,0.6557617-0.5185547,0.6557617-0.9384766   V5.8310547C46.9428368,3.7646484,45.2616844,2.0839844,43.1957664,2.0839844z M12.3744764,21.0185547H6.4384413V7.0517578   c0-1.6367188,1.331543-2.9677734,2.9682617-2.9677734c1.6362305,0,2.9677734,1.3310547,2.9677734,2.9677734V21.0185547z    M44.9428368,49.8818359l-1.4902344-1.7578125c-0.1899414-0.2246094-0.46875-0.3535156-0.7626953-0.3535156   s-0.5727539,0.1289063-0.7626953,0.3535156L39.4355125,51.0625l-2.4931641-2.9384766   c-0.3798828-0.4492188-1.1455078-0.4492188-1.5253906,0L32.9237938,51.0625l-2.4936523-2.9394531   c-0.1899414-0.2236328-0.4692383-0.3525391-0.7626953-0.3525391s-0.5722656,0.1289063-0.7626953,0.3525391L26.4106102,51.0625   l-2.4921875-2.9384766c-0.1899414-0.2246094-0.46875-0.3535156-0.7626953-0.3535156   c-0.293457,0-0.5722656,0.1289063-0.762207,0.3525391l-2.4960938,2.9404297l-2.4975586-2.9404297   c-0.3798828-0.4472656-1.1445313-0.4472656-1.524415,0l-1.4980469,1.7636719V16.8144531h-0.0029297V7.0517578   c0-1.1166992-0.3839111-2.137207-1.0081787-2.9677734h29.8294678c0.9633789,0,1.7470703,0.7841797,1.7470703,1.7470703V49.8818359z   "/><rect x="17.1029968" y="8.8369141" width="24.8789063" height="2"/><rect x="17.1029968" y="15.5898438" width="24.8789063" height="2"/><rect x="17.1029968" y="22.3427734" width="24.8789063" height="2"/><path d="M29.5424461,32.0742188c0.7919922,0,1.4365234,0.6445313,1.4365234,1.4365234h2   c0-1.5444336-1.03125-2.8393555-2.4365234-3.270752v-2.3942871h-2v2.3942871   c-1.4052734,0.4313965-2.4365234,1.7263184-2.4365234,3.270752c0,1.8945313,1.5415039,3.4365234,3.4365234,3.4365234   c0.7919922,0,1.4365234,0.6445313,1.4365234,1.4365234s-0.6445313,1.4365234-1.4365234,1.4365234   s-1.4365234-0.6445313-1.4365234-1.4365234h-2c0,1.5444336,1.03125,2.8392334,2.4365234,3.2706299v2.3944092h2v-2.3944092   c1.4052734-0.4313965,2.4365234-1.7261963,2.4365234-3.2706299c0-1.8945313-1.5415039-3.4365234-3.4365234-3.4365234   c-0.7919922,0-1.4365234-0.6445313-1.4365234-1.4365234S28.7504539,32.0742188,29.5424461,32.0742188z"/><path d="M75.5912704,88.7197266c1.7304688,0,3.1386719-1.4082031,3.1386719-3.1386719V73.0419922   c0-1.7304688-1.4082031-3.1386719-3.1386719-3.1386719H55.6322899c-1.7304688,0-3.1386719,1.4082031-3.1386719,3.1386719   v12.5390625c0,1.7304688,1.4082031,3.1386719,3.1386719,3.1386719h1.2822266l0.9165039,5.9433594   c0.0639648,0.4140625,0.3793945,0.7451172,0.7900391,0.828125c0.0664063,0.0126953,0.1328125,0.0195313,0.1982422,0.0195313   c0.3422852,0,0.6669922-0.1757813,0.8510742-0.4755859l3.8925781-6.3154297H75.5912704z M62.1537743,87.1953125   l-2.7602539,4.4775391l-0.6333008-4.1054688c-0.0751953-0.4873047-0.4946289-0.8476563-0.9882813-0.8476563h-2.1396484   c-0.6279297,0-1.1386719-0.5107422-1.1386719-1.1386719V73.0419922c0-0.6279297,0.5107422-1.1386719,1.1386719-1.1386719   h19.9589806c0.6279297,0,1.1386719,0.5107422,1.1386719,1.1386719v12.5390625c0,0.6279297-0.5107422,1.1386719-1.1386719,1.1386719   h-12.586422C62.6576805,86.7197266,62.3354149,86.8994141,62.1537743,87.1953125z"/><rect x="58.7836304" y="81.0234375" width="13.65625" height="2"/><rect x="58.7836304" y="75.5996094" width="13.65625" height="2"/><path d="M40.4992943,72.9169922h-1.4363403c-2.0914917,0-3.7926025,1.6296387-3.9450684,3.6828613   c-2.4015503,0.4550781-4.2253418,2.5566406-4.2253418,5.0808105c0,2.5319824,1.8236694,4.6405029,4.2252808,5.097168   c0.1523438,2.0533447,1.8535156,3.6831055,3.9451294,3.6831055h5.2714844c0.5522461,0,1-0.4472656,1-1V73.9169922   c0-0.5527344-0.4477539-1-1-1h-1.8336792c0.3543091-5.5961914,2.8519897-10.8885498,6.9710083-14.7722168   c1.3233528,0.9531708,2.9978943,0.9118881,4.2449951,0.0544434c3.4951172-2.3964844,7.5678711-3.6640625,11.7778282-3.6640625   c4.2143555,0,8.2915039,1.2675781,11.7905273,3.6669922c1.2285156,0.8416862,2.8722534,0.9047012,4.2303467-0.0666504   c4.125,3.8843994,6.6261597,9.1806641,6.9807739,14.7814941h-1.8302612c-0.5522461,0-1,0.4472656-1,1v15.5439453   c0,0.5527344,0.4477539,1,1,1h2.9804688v3.3759766c0,5.2128906-4.2407227,9.453125-9.453125,9.453125h-9.1679077   c-0.4460449-1.6940918-1.9765015-2.953125-3.8086548-2.953125h-3.4331017c-2.1796875,0-3.9526367,1.7734375-3.9526367,3.953125   s1.7729492,3.9521484,3.9526367,3.9521484h3.4331017c1.8321533,0,3.3625488-1.2583008,3.8085938-2.9521484h9.1679688   c6.3154297,0,11.453125-5.1376953,11.453125-11.453125v-3.3759766h0.2910156c2.0916138,0,3.7927856-1.6297607,3.9451294-3.6831055   c2.4015503-0.4567871,4.2252808-2.5651855,4.2252808-5.097168c0-2.5241699-1.8237305-4.6257324-4.2252808-5.0808105   c-0.1524658-2.0532227-1.8536377-3.6828613-3.9451294-3.6828613h-1.4397583   c-0.3599854-6.1977539-3.1283569-12.060791-7.7126465-16.3295898c0.6686401-1.5848389,0.1557007-3.4799805-1.3173218-4.4907227   c-4.7368164-3.2451172-10.2602539-4.9609375-15.9731445-4.9609375c-5.7094688,0-11.2294884,1.7158203-15.9633751,4.9628906   c-1.4720459,1.0101318-1.9848633,2.902832-1.3167114,4.4868164C43.6285057,60.854248,40.8593407,66.7182617,40.4992943,72.9169922z    M32.8925438,81.6806641c0-1.4052734,0.921875-2.6005859,2.1958008-3.0195313v6.0546875   C33.8144188,84.2949219,32.8925438,83.09375,32.8925438,81.6806641z M43.3344383,88.4609375h-4.2714844   c-1.0888672,0-1.9746094-0.8857422-1.9746094-1.9746094v-0.6103516v-8.3740234v-0.6103516   c0-1.0888672,0.8857422-1.9746094,1.9746094-1.9746094h4.2714844V88.4609375z M67.2167587,106.2421875h-3.4331017   c-1.0766602,0-1.9526367-0.8759766-1.9526367-1.9521484c0-1.0771484,0.8759766-1.953125,1.9526367-1.953125h3.4331017   c1.0766602,0,1.9526367,0.8759766,1.9526367,1.953125C69.1693954,105.3662109,68.2934189,106.2421875,67.2167587,106.2421875z    M98.107872,81.6806641c0,1.4130859-0.921875,2.6142578-2.1958008,3.0351563v-6.0546875   C97.185997,79.0800781,98.107872,80.2753906,98.107872,81.6806641z M93.9120712,76.8916016v0.6103516v8.3740234v0.6103516   c0,1.0888672-0.8857422,1.9746094-1.9746094,1.9746094h-4.2714844V74.9169922h4.2714844   C93.026329,74.9169922,93.9120712,75.8027344,93.9120712,76.8916016z M50.6625633,53.7470703   c4.3994141-3.0166016,9.527832-4.6113281,14.8320274-4.6113281c5.3076172,0,10.4399414,1.5947266,14.8417969,4.6103516   c0.7729492,0.53125,0.9711914,1.5908203,0.4418945,2.3632813c-0.5102539,0.7460938-1.6166992,0.9560547-2.3623047,0.4423828   c-3.8334961-2.6279297-8.3017578-4.0166016-12.9213867-4.0166016c-4.6157188,0-9.079586,1.3886719-12.9091759,4.015625   c-0.7603683,0.520771-1.8209572,0.3491898-2.362793-0.4404297C49.6923485,55.3378906,49.8901024,54.2773438,50.6625633,53.7470703z   "/><path d="M128.9999695,111.6962891h-5.8828201V40.6894531c0-2.7480469-2.2358398-4.984375-4.984375-4.984375H49.9316063v2   h68.2011719c1.6455078,0,2.984375,1.3388672,2.984375,2.984375v71.0068359h-3.9765625V42.6816406c0-0.5527344-0.4477539-1-1-1   H49.9316063v2h65.2089844v68.0146484H80.6903915H50.3100243H15.8593397V57.015625h-2v54.6806641H9.8832655V40.6894531h-2   v71.0068359H1.9999648c-0.5522461,0-1,0.4472656-1,1v7.2509766c0,4.9453125,4.0234375,8.96875,8.96875,8.96875h111.0629883   c4.9453125,0,8.9682693-4.0234375,8.9682693-8.96875v-7.2509766   C129.9999695,112.1435547,129.5522156,111.6962891,128.9999695,111.6962891z M78.6767197,113.6962891l-3.628418,4.7832031   H55.9521141l-3.628418-4.7832031H78.6767197z M127.9999619,119.9472656c0,3.8427734-3.1259766,6.96875-6.9682617,6.96875H9.9687147   c-3.8427734,0-6.96875-3.1259766-6.96875-6.96875v-6.2509766c10.0155592,0,36.8216248,0,46.8132324,0l4.845459,6.3876953   c0.1894531,0.2490234,0.4838867,0.3955078,0.796875,0.3955078h20.0893517c0.3129883,0,0.6074219-0.1464844,0.796875-0.3955078   l4.845459-6.3876953c9.9869308,0,36.7966995,0,46.8127441,0V119.9472656z"/><path d="M14.8593397,115.8261719c-2.4702148,0-4.4794922,2.0097656-4.4794922,4.4794922s2.0092773,4.4794922,4.4794922,4.4794922   s4.4799814-2.0097656,4.4799814-4.4794922S17.3295555,115.8261719,14.8593397,115.8261719z M14.8593397,122.7851563   c-1.3671875,0-2.4794922-1.1123047-2.4794922-2.4794922s1.1123047-2.4794922,2.4794922-2.4794922   c1.3676767,0,2.4799814,1.1123047,2.4799814,2.4794922S16.2270164,122.7851563,14.8593397,122.7851563z"/><path d="M27.259243,115.8261719c-2.4702148,0-4.4799805,2.0097656-4.4799805,4.4794922s2.0097656,4.4794922,4.4799805,4.4794922   s4.4794922-2.0097656,4.4794922-4.4794922S29.7294579,115.8261719,27.259243,115.8261719z M27.259243,122.7851563   c-1.3676758,0-2.4799805-1.1123047-2.4799805-2.4794922s1.1123047-2.4794922,2.4799805-2.4794922   c1.3671875,0,2.4794922,1.1123047,2.4794922,2.4794922S28.6264305,122.7851563,27.259243,122.7851563z"/><path d="M39.6586571,115.8261719c-2.4702148,0-4.4794922,2.0097656-4.4794922,4.4794922s2.0092773,4.4794922,4.4794922,4.4794922   s4.4794922-2.0097656,4.4794922-4.4794922S42.1288719,115.8261719,39.6586571,115.8261719z M39.6586571,122.7851563   c-1.3671875,0-2.4794922-1.1123047-2.4794922-2.4794922s1.1123047-2.4794922,2.4794922-2.4794922   s2.4794922,1.1123047,2.4794922,2.4794922S41.0258446,122.7851563,39.6586571,122.7851563z"/></g></svg>