<svg xmlns="http://www.w3.org/2000/svg" fill='#32b2c1' xmlns:xlink="http://www.w3.org/1999/xlink" version="1.1" x="0px" y="0px" viewBox="0 0 66 82.5" style="enable-background:new 0 0 66 66;" xml:space="preserve"><path d="M63.98,50.66h-1.84V20.88c0-2.62-2.13-4.75-4.75-4.75H40.01c-0.41,0-0.75,0.34-0.75,0.75s0.34,0.75,0.75,0.75h17.38  c1.79,0,3.25,1.46,3.25,3.25v29.79H13.32v-9.12c0-0.41-0.34-0.75-0.75-0.75s-0.75,0.34-0.75,0.75v9.12H9.98  c-0.41,0-0.75,0.34-0.75,0.75v3.82c0,0.2,0.08,0.39,0.22,0.53l3,3c0.14,0.14,0.33,0.22,0.53,0.22h47.99c0.2,0,0.39-0.08,0.53-0.22  l3-3c0.14-0.14,0.22-0.33,0.22-0.53v-3.82C64.73,51,64.39,50.66,63.98,50.66z M63.23,54.93l-2.56,2.56H13.29l-2.56-2.56v-2.76h1.84  h48.82h1.84V54.93z"/><path d="M17.32,37.65c0-0.41-0.34-0.75-0.75-0.75s-0.75,0.34-0.75,0.75v9.76c0,0.41,0.34,0.75,0.75,0.75h40.82  c0.41,0,0.75-0.34,0.75-0.75V20.88c0-0.41-0.34-0.75-0.75-0.75H40.58c-0.41,0-0.75,0.34-0.75,0.75s0.34,0.75,0.75,0.75h16.06v25.04  H17.32V37.65z"/><path d="M53.39,44.16c0.41,0,0.75-0.34,0.75-0.75V26.88c0-0.41-0.34-0.75-0.75-0.75h-4c-0.41,0-0.75,0.34-0.75,0.75v16.53  c0,0.41,0.34,0.75,0.75,0.75H53.39z M50.14,27.63h2.5v15.03h-2.5V27.63z"/><path d="M45.37,44.16c0.41,0,0.75-0.34,0.75-0.75V31.88c0-0.41-0.34-0.75-0.75-0.75h-4c-0.41,0-0.75,0.34-0.75,0.75v11.53  c0,0.41,0.34,0.75,0.75,0.75H45.37z M42.12,32.63h2.5v10.03h-2.5V32.63z"/><path d="M37.35,44.16c0.41,0,0.75-0.34,0.75-0.75v-6.53c0-0.41-0.34-0.75-0.75-0.75h-4c-0.41,0-0.75,0.34-0.75,0.75v6.53  c0,0.41,0.34,0.75,0.75,0.75H37.35z M34.1,37.64h2.5v5.03h-2.5V37.64z"/><path d="M39.48,54.07h-5.01c-0.41,0-0.75,0.34-0.75,0.75s0.34,0.75,0.75,0.75h5.01c0.41,0,0.75-0.34,0.75-0.75  S39.9,54.07,39.48,54.07z"/><path d="M24.16,31.32c5.6,0,10.16-4.56,10.16-10.16s-4.56-10.16-10.16-10.16s-10.16,4.56-10.16,10.16S18.56,31.32,24.16,31.32z   M24.16,12.51c4.77,0,8.66,3.88,8.66,8.66s-3.88,8.66-8.66,8.66s-8.66-3.88-8.66-8.66S19.39,12.51,24.16,12.51z"/><path d="M24.16,24.87c-0.81,0-1.48-0.66-1.48-1.48c0-0.41-0.34-0.75-0.75-0.75s-0.75,0.34-0.75,0.75c0,1.38,0.95,2.53,2.23,2.87  v0.92c0,0.41,0.34,0.75,0.75,0.75s0.75-0.34,0.75-0.75v-0.92c1.28-0.33,2.23-1.49,2.23-2.87c0-1.64-1.34-2.98-2.98-2.98  c-0.81,0-1.48-0.66-1.48-1.48c0-0.81,0.66-1.48,1.48-1.48s1.48,0.66,1.48,1.48c0,0.41,0.34,0.75,0.75,0.75s0.75-0.34,0.75-0.75  c0-1.38-0.95-2.54-2.23-2.87v-0.92c0-0.41-0.34-0.75-0.75-0.75s-0.75,0.34-0.75,0.75v0.92c-1.28,0.33-2.23,1.49-2.23,2.87  c0,1.64,1.33,2.98,2.98,2.98c0.81,0,1.48,0.66,1.48,1.48C25.64,24.21,24.98,24.87,24.16,24.87z"/><path d="M15.23,34.63l-0.41-0.41l1.36-1.36c2.33,1.6,5.09,2.47,7.98,2.47c3.78,0,7.34-1.47,10.01-4.15c5.52-5.52,5.52-14.5,0-20.03  c-5.52-5.52-14.5-5.52-20.03,0C11.48,13.83,10,17.38,10,21.17c0,2.89,0.87,5.65,2.47,7.98l-1.36,1.36L10.7,30.1  c-0.29-0.29-0.77-0.29-1.06,0L2.43,37.3c-0.75,0.75-1.16,1.74-1.16,2.8s0.41,2.05,1.16,2.8c0.75,0.75,1.74,1.16,2.8,1.16  c1.06,0,2.05-0.41,2.8-1.16l7.21-7.21C15.53,35.4,15.53,34.92,15.23,34.63z M15.21,12.21c2.47-2.47,5.71-3.7,8.95-3.7  c3.24,0,6.48,1.23,8.95,3.7c2.39,2.39,3.71,5.57,3.71,8.95s-1.32,6.56-3.71,8.95c-2.39,2.39-5.57,3.71-8.95,3.71  c-3.38,0-6.56-1.32-8.95-3.71c-2.39-2.39-3.71-5.57-3.71-8.95S12.82,14.61,15.21,12.21z M12.17,31.57l1.22-1.22  c0.24,0.29,0.49,0.57,0.76,0.84s0.55,0.52,0.84,0.76l-1.22,1.22l-0.8-0.8L12.17,31.57z M6.97,41.84c-0.93,0.93-2.54,0.93-3.47,0  c-0.46-0.46-0.72-1.08-0.72-1.74s0.26-1.27,0.72-1.74l6.68-6.68l1.74,1.74l1.33,1.33c0,0,0,0,0,0l0.41,0.41L6.97,41.84z"/><path d="M20.57,40.32h6.61c0.41,0,0.75-0.34,0.75-0.75s-0.34-0.75-0.75-0.75h-6.61c-0.41,0-0.75,0.34-0.75,0.75  S20.16,40.32,20.57,40.32z"/><path d="M20.57,44.16h6.61c0.41,0,0.75-0.34,0.75-0.75s-0.34-0.75-0.75-0.75h-6.61c-0.41,0-0.75,0.34-0.75,0.75  S20.16,44.16,20.57,44.16z"/></svg>