<svg xmlns="http://www.w3.org/2000/svg" xmlns:xlink="http://www.w3.org/1999/xlink" version="1.0" x="0px" y="0px" viewBox="0 0 74 92.5" style="enable-background:new 0 0 74 74;" xml:space="preserve" fill='#ff6600'><g><path d="M50.05,65.59c0.36,0.11,0.73,0.16,1.1,0.16c0.64,0,1.28-0.16,1.86-0.48c0.91-0.5,1.57-1.33,1.86-2.32   c0.29-1,0.17-2.05-0.33-2.96c-1.03-1.87-3.4-2.56-5.28-1.53c-1.87,1.03-2.56,3.4-1.53,5.27C48.23,64.64,49.05,65.3,50.05,65.59z    M49.74,59.34c0.44-0.24,0.92-0.36,1.39-0.36c1.02,0,2.01,0.54,2.53,1.49c0.37,0.67,0.46,1.46,0.24,2.2   c-0.22,0.74-0.71,1.35-1.38,1.73c-0.67,0.37-1.45,0.46-2.19,0.24c-0.74-0.22-1.35-0.71-1.73-1.38   C47.84,61.86,48.35,60.1,49.74,59.34z"/><path d="M51.74,11h3.55c0.6,0,1.08-0.49,1.08-1.08V7.85c0-0.6-0.49-1.08-1.08-1.08h-3.55c-0.6,0-1.08,0.49-1.08,1.08v2.06   C50.66,10.51,51.14,11,51.74,11z M51.66,7.85c0-0.05,0.04-0.08,0.08-0.08h3.55c0.05,0,0.08,0.04,0.08,0.08v2.06   c0,0.05-0.04,0.08-0.08,0.08h-3.55c-0.05,0-0.08-0.04-0.08-0.08V7.85z"/><path d="M43.48,11h3.55c0.6,0,1.08-0.49,1.08-1.08V7.85c0-0.6-0.49-1.08-1.08-1.08h-3.55c-0.6,0-1.08,0.49-1.08,1.08v2.06   C42.4,10.51,42.88,11,43.48,11z M43.4,7.85c0-0.05,0.04-0.08,0.08-0.08h3.55c0.05,0,0.08,0.04,0.08,0.08v2.06   c0,0.05-0.04,0.08-0.08,0.08h-3.55c-0.05,0-0.08-0.04-0.08-0.08V7.85z"/><path d="M35.22,11h3.55c0.6,0,1.08-0.49,1.08-1.08V7.85c0-0.6-0.49-1.08-1.08-1.08h-3.55c-0.6,0-1.08,0.49-1.08,1.08v2.06   C34.14,10.51,34.63,11,35.22,11z M35.14,7.85c0-0.05,0.04-0.08,0.08-0.08h3.55c0.05,0,0.08,0.04,0.08,0.08v2.06   c0,0.05-0.04,0.08-0.08,0.08h-3.55c-0.05,0-0.08-0.04-0.08-0.08V7.85z"/><path d="M26.97,11h3.55c0.6,0,1.08-0.49,1.08-1.08V7.85c0-0.6-0.49-1.08-1.08-1.08h-3.55c-0.6,0-1.08,0.49-1.08,1.08v2.06   C25.88,10.51,26.37,11,26.97,11z M26.88,7.85c0-0.05,0.04-0.08,0.08-0.08h3.55c0.05,0,0.08,0.04,0.08,0.08v2.06   c0,0.05-0.04,0.08-0.08,0.08h-3.55c-0.05,0-0.08-0.04-0.08-0.08V7.85z"/><path d="M22.25,38.51h-3.55c-0.6,0-1.08,0.49-1.08,1.08v2.06c0,0.6,0.49,1.08,1.08,1.08h3.55c0.6,0,1.08-0.49,1.08-1.08v-2.06   C23.34,38.99,22.85,38.51,22.25,38.51z M22.34,41.65c0,0.05-0.04,0.08-0.08,0.08h-3.55c-0.05,0-0.08-0.04-0.08-0.08v-2.06   c0-0.05,0.04-0.08,0.08-0.08h3.55c0.05,0,0.08,0.04,0.08,0.08V41.65z"/><path d="M58.63,4.5H15.36c-1.96,0-3.56,1.6-3.56,3.57v33.37c0,1.97,1.6,3.57,3.56,3.57h17.85l-1.58,2.88   c-0.4,0.74-0.5,1.58-0.26,2.39c0.23,0.8,0.76,1.46,1.49,1.85l0.02,0.01l-2.42,4.4c-0.52-0.53-1.12-0.99-1.79-1.36   c-3.69-2.03-8.34-0.68-10.37,3c-2.03,3.69-0.68,8.35,3.01,10.38c1.14,0.63,2.39,0.94,3.66,0.94c0.72,0,1.44-0.1,2.15-0.31   c1.96-0.57,3.58-1.87,4.56-3.65c0,0,0,0,0,0l6.38-11.6l6.35,11.55c0.01,0.02,0.02,0.04,0.03,0.05c0.98,1.79,2.6,3.08,4.56,3.65   c0.71,0.21,1.43,0.31,2.15,0.31c1.27,0,2.52-0.32,3.66-0.94c3.69-2.03,5.04-6.68,3.01-10.38c-2.03-3.69-6.68-5.03-10.37-3   c-0.67,0.37-1.27,0.83-1.79,1.36l-2.42-4.4l0.02-0.01c0.73-0.4,1.26-1.05,1.49-1.85c0.24-0.81,0.14-1.65-0.26-2.39l-1.55-2.82   l0.03-0.06h15.65c1.97,0,3.57-1.6,3.57-3.57V8.07C62.2,6.1,60.59,4.5,58.63,4.5z M12.8,13.27h7.09c0.85,0,1.54,0.69,1.54,1.54   v19.87c0,0.85-0.69,1.54-1.54,1.54H12.8V13.27z M15.36,44.01c-1.41,0-2.56-1.15-2.56-2.57v-4.21h7.09c1.4,0,2.54-1.14,2.54-2.54   V14.82c0-1.4-1.14-2.54-2.54-2.54H12.8v-4.2c0-1.42,1.15-2.57,2.56-2.57h43.26c1.42,0,2.57,1.15,2.57,2.57v4.2h-7.1   c-1.4,0-2.54,1.14-2.54,2.54v9.99c-0.02-0.07-0.03-0.14-0.05-0.21c-0.32-1.12-0.91-2.13-1.67-3.01v-6.77   c0-1.41-1.14-2.55-2.54-2.55H26.7c-1.4,0-2.54,1.14-2.54,2.55v19.87c0,1.4,1.14,2.54,2.54,2.54h10.8l-0.7,1.28h-1.57   c-0.6,0-1.09,0.48-1.09,1.08v2.06c0,0.36,0.19,0.66,0.46,0.86l-0.82,1.5H15.36z M61.19,13.27v22.96H54.1   c-0.85,0-1.54-0.69-1.54-1.54V14.82c0-0.85,0.69-1.54,1.54-1.54H61.19z M35.14,41.53v-1.94c0-0.04,0.04-0.08,0.09-0.08h1.02   L35.14,41.53z M38.05,36.23H26.7c-0.85,0-1.54-0.69-1.54-1.54V14.82c0-0.85,0.69-1.55,1.54-1.55h20.6c0.85,0,1.54,0.7,1.54,1.55   v5.8c-0.16-0.13-0.3-0.27-0.47-0.39c-0.28-0.2-0.63-0.27-0.97-0.19c-0.33,0.08-0.61,0.29-0.77,0.59L38.05,36.23z M34,52.18   c0.06-0.12,0.08-0.25,0.04-0.38c-0.04-0.13-0.12-0.24-0.24-0.3l-0.46-0.25c-0.49-0.27-0.85-0.71-1.01-1.25   c-0.16-0.55-0.1-1.12,0.18-1.63l14.99-27.26c0.03-0.06,0.08-0.08,0.12-0.09c0.03-0.01,0.1-0.01,0.17,0.04   c1.33,0.92,2.31,2.28,2.76,3.83c0.52,1.8,0.31,3.71-0.59,5.36L32.62,61.76c-0.01-0.68-0.11-1.36-0.3-2.03   c-0.25-0.87-0.65-1.66-1.17-2.37L34,52.18z M46,39.51h1.03c0.05,0,0.09,0.04,0.09,0.08v2.06c0,0.05-0.05,0.09-0.09,0.09h-2.25   L46,39.51z M48.84,34.35v0.34c0,0.65-0.4,1.2-0.97,1.43L48.84,34.35z M26.84,68.23c-1.7,0.49-3.49,0.3-5.04-0.55   c-3.21-1.76-4.38-5.81-2.62-9.02c1.21-2.19,3.48-3.43,5.82-3.43c1.08,0,2.18,0.26,3.19,0.82c1.55,0.85,2.68,2.26,3.17,3.96   c0.5,1.7,0.3,3.49-0.56,5.04C29.95,66.61,28.55,67.74,26.84,68.23z M47.93,56.05c1.01-0.56,2.11-0.82,3.19-0.82   c2.34,0,4.62,1.24,5.82,3.43c1.76,3.21,0.59,7.25-2.62,9.02c-1.55,0.85-3.34,1.05-5.04,0.55c-1.7-0.5-3.11-1.62-3.97-3.18   c-0.85-1.55-1.05-3.34-0.56-5.04C45.26,58.31,46.38,56.9,47.93,56.05z M43.62,48.37c0.28,0.5,0.34,1.08,0.18,1.63   c-0.16,0.54-0.52,0.99-1.01,1.25l-0.46,0.25c-0.12,0.06-0.2,0.17-0.24,0.3c-0.04,0.13-0.02,0.26,0.04,0.38l2.85,5.18   c-0.52,0.71-0.92,1.5-1.17,2.37c-0.19,0.67-0.29,1.34-0.3,2.02l-4.87-8.85l3.74-6.8L43.62,48.37z M58.63,44.01h-15.1l0.7-1.27h2.8   c0.6,0,1.09-0.49,1.09-1.09v-2.06c0-0.6-0.49-1.08-1.09-1.08h-0.48l0.7-1.28h0.04c1.4,0,2.54-1.14,2.54-2.54v-2.15l1-1.82   c0.32-0.59,0.55-1.2,0.72-1.83v5.8c0,1.4,1.14,2.54,2.54,2.54h7.1v4.21C61.2,42.86,60.04,44.01,58.63,44.01z"/><path d="M55.29,38.51h-3.55c-0.6,0-1.08,0.49-1.08,1.08v2.06c0,0.6,0.49,1.08,1.08,1.08h3.55c0.6,0,1.08-0.49,1.08-1.08v-2.06   C56.37,38.99,55.88,38.51,55.29,38.51z M55.37,41.65c0,0.05-0.04,0.08-0.08,0.08h-3.55c-0.05,0-0.08-0.04-0.08-0.08v-2.06   c0-0.05,0.04-0.08,0.08-0.08h3.55c0.05,0,0.08,0.04,0.08,0.08V41.65z"/><path d="M30.51,38.51h-3.55c-0.6,0-1.08,0.49-1.08,1.08v2.06c0,0.6,0.49,1.08,1.08,1.08h3.55c0.6,0,1.08-0.49,1.08-1.08v-2.06   C31.6,38.99,31.11,38.51,30.51,38.51z M30.6,41.65c0,0.05-0.04,0.08-0.08,0.08h-3.55c-0.05,0-0.08-0.04-0.08-0.08v-2.06   c0-0.05,0.04-0.08,0.08-0.08h3.55c0.05,0,0.08,0.04,0.08,0.08V41.65z"/><path d="M22.25,6.77h-3.55c-0.6,0-1.08,0.49-1.08,1.08v2.06c0,0.6,0.49,1.08,1.08,1.08h3.55c0.6,0,1.08-0.49,1.08-1.08V7.85   C23.34,7.26,22.85,6.77,22.25,6.77z M22.34,9.92c0,0.05-0.04,0.08-0.08,0.08h-3.55c-0.05,0-0.08-0.04-0.08-0.08V7.85   c0-0.05,0.04-0.08,0.08-0.08h3.55c0.05,0,0.08,0.04,0.08,0.08V9.92z"/><path d="M26.87,58.46c-1.88-1.03-4.25-0.35-5.28,1.53c-0.5,0.91-0.62,1.96-0.33,2.96c0.29,1,0.95,1.82,1.86,2.32   c0.58,0.32,1.21,0.48,1.86,0.48c0.37,0,0.73-0.05,1.1-0.16c1-0.29,1.82-0.95,2.32-1.86C29.43,61.86,28.74,59.49,26.87,58.46z    M27.52,63.25c-0.37,0.68-0.98,1.17-1.73,1.38c-0.74,0.22-1.52,0.13-2.19-0.24c-0.68-0.37-1.17-0.98-1.38-1.73   c-0.22-0.74-0.13-1.52,0.24-2.2c0.52-0.95,1.51-1.49,2.53-1.49c0.47,0,0.95,0.12,1.39,0.36C27.78,60.1,28.29,61.86,27.52,63.25z"/></g></svg>